<?xml version="1.0" encoding="utf-8"?>
<!-- Generator: Adobe Illustrator 23.0.0, SVG Export Plug-In . SVG Version: 6.00 Build 0)  -->
<svg version="1.1" id="Capa_1" xmlns="http://www.w3.org/2000/svg" xmlns:xlink="http://www.w3.org/1999/xlink" x="0px" y="0px"
	 viewBox="0 0 515.89 137.78" style="enable-background:new 0 0 515.89 137.78;" xml:space="preserve">
<style type="text/css">
	.st0{fill:#DD0B14;}
	.st1{fill:#70B539;}
	.st2{fill:#45BFE8;}
	.st3{fill:#F5C313;}
	.st4{fill:#DC0977;}
	.st5{fill:#E00A7A;}
	.st6{fill:#E10A7B;}
	.st7{fill:#AB137F;}
	.st8{fill:#D2A506;}
	.st9{fill:#CE056F;}
	.st10{fill:#8F0B69;}
	.st11{fill:#23A5D0;}
	.st12{fill:#AB137E;}
	.st13{fill:#960E6F;}
	.st14{fill:#579B20;}
	.st15{fill:#900B69;}
	.st16{fill:#C40E16;}
	.st17{fill:#579C20;}
	.st18{fill:#D91C7F;}
	.st19{fill:#880176;}
	.st20{fill:#FDF6DD;}
	.st21{fill:#63A62D;}
	.st22{fill:#23A6D0;}
	.st23{fill:#D81A7D;}
	.st24{fill:#D81B7E;}
	.st25{fill:#DA1E81;}
	.st26{fill:#DB1C80;}
	.st27{fill:#DB1A7F;}
	.st28{fill:#DB1F81;}
	.st29{fill:#D3A607;}
	.st30{fill:#D81A7E;}
	.st31{fill:#DA1F81;}
</style>
<path d="M358.26,61.99c0.58-0.53,0.99-0.89,1.4-1.26c6.97-6.27,15.83-7.79,23.67-3.99c6.14,2.97,9.42,8.16,10.98,14.59
	c0.53,2.18,0.78,4.4,0.78,6.65c0.01,8.44,0.01,16.88,0.06,25.32c0.01,0.9-0.21,1.14-1.11,1.13c-3.28-0.05-6.56-0.04-9.84,0.04
	c-0.99,0.02-1.26-0.21-1.26-1.22c0.02-8.4-0.02-16.8-0.04-25.2c0-1.74-0.34-3.42-0.93-5.04c-3.34-9.03-14.7-8.82-19.41-3.64
	c-2.28,2.51-3.69,5.38-3.79,8.81c-0.24,8.32-0.14,16.64-0.14,24.96c0,1.15-0.35,1.36-1.39,1.34c-3.2-0.07-6.4-0.05-9.6-0.01
	c-0.8,0.01-1.08-0.14-1.08-1.03c0.03-15.64,0.03-31.28,0-46.92c0-0.79,0.12-1.1,1.01-1.08c2.96,0.06,5.92,0.06,8.88,0
	c0.92-0.02,1.12,0.31,1.18,1.15C357.75,58.32,358.02,60.05,358.26,61.99z"/>
<path d="M462.55,106.09c-5.41-0.03-10.38-0.85-14.98-3.27c-2.39-1.25-4.48-2.91-6.45-4.74c-0.51-0.47-0.59-0.85-0.19-1.42
	c1.7-2.46,3.39-4.93,5.06-7.42c0.31-0.46,0.52-0.45,0.91-0.1c4.44,3.96,9.77,5.79,15.59,6.33c2.94,0.27,5.76-0.25,8.02-2.38
	c2.72-2.58,2-6.06-1.5-7.39c-2.24-0.85-4.61-0.94-6.95-1.16c-4.24-0.4-8.39-1.13-12.23-3.1c-7.28-3.74-9.88-11.72-6.04-18.65
	c1.32-2.38,3.32-4.05,5.62-5.43c7.53-4.5,22.12-4.48,29.67,1.03c0.93,0.68,2.4,1.2,2.59,2.16c0.18,0.89-1.21,1.71-1.91,2.56
	c-1.35,1.63-2.77,3.21-4.11,4.85c-0.4,0.49-0.62,0.48-1.1,0.09c-4.92-4.05-10.54-4.55-16.51-3.22c-0.54,0.12-1.07,0.35-1.55,0.61
	c-1.42,0.77-2.37,1.88-2.39,3.59c-0.02,1.7,0.85,2.88,2.27,3.67c1.85,1.04,3.91,1.36,5.99,1.53c4.34,0.37,8.65,0.81,12.8,2.35
	c11.22,4.15,11.11,17.76,4.85,23.67c-3.24,3.06-7.09,4.67-11.39,5.41C466.51,106.03,464.4,106.19,462.55,106.09z"/>
<path class="st0" d="M70.95,95.38c0.01,2.76-0.01,5.52,0.03,8.28c0.01,0.76-0.16,1.04-0.99,1.02c-3.44-0.05-6.88-0.06-10.32,0
	c-0.96,0.02-1.09-0.32-1.09-1.17c0.03-11.6,0.02-23.2,0.02-34.79c0-6.8-0.02-13.6,0.02-20.4c0-0.9-0.17-1.21-1.16-1.2
	c-5.72,0.05-11.44,0-17.16,0.05c-0.94,0.01-1.21-0.24-1.18-1.18c0.07-2.8,0.05-5.6,0.01-8.4c-0.01-0.73,0.18-0.95,0.94-0.95
	c16.56,0.02,33.11,0.02,49.67,0c0.78,0,0.93,0.27,0.92,0.97c-0.03,2.84-0.05,5.68,0.01,8.52c0.02,0.87-0.28,1.04-1.09,1.04
	c-5.8-0.03-11.6,0.01-17.4-0.04c-1-0.01-1.24,0.24-1.24,1.24c0.04,14.48,0.02,28.95,0.02,43.43c0,0.48-0.02,0.96-0.03,1.44
	c-0.14,0.56-0.65,0.68-1.07,0.88c-2.39,1.15-4.49,2.72-6.46,4.47c-0.11,0.12,0.17,0.11,0.03,0.04c-0.04-0.02-0.04-0.06,0.03-0.11
	c2.15-1.61,4.67-2.4,7.16-3.26C70.73,95.23,70.85,95.29,70.95,95.38z"/>
<path d="M420.57,77.81c0,3.32,0,6.64,0,9.95c0,3.96,2.7,6.49,6.66,6.27c1.57-0.09,3.08-0.43,4.52-1.06c0.67-0.3,1.01-0.3,1.27,0.54
	c0.89,2.89,1.87,5.76,2.82,8.63c0.15,0.44,0.29,0.77-0.34,1c-5.72,2.08-11.52,2.76-17.35,0.68c-5.81-2.07-8.47-6.7-9.43-12.51
	c-0.38-2.3-0.23-4.63-0.25-6.94c-0.04-5.76-0.07-11.51-0.04-17.27c0-0.85-0.23-1.07-1.06-1.05c-2.36,0.06-4.72-0.03-7.07,0.04
	c-0.94,0.03-1.12-0.27-1.09-1.14c0.08-2.76,0.12-5.52,0.07-8.27c-0.02-0.95,0.3-1.11,1.16-1.09c2.36,0.05,4.72-0.03,7.08,0
	c0.74,0.01,0.93-0.2,0.93-0.94c-0.03-3.56,0.02-7.12-0.01-10.67c0-0.68,0.15-0.99,0.88-1.05c3.42-0.32,6.84-0.67,10.25-1.07
	c0.87-0.1,1.08,0.2,1.07,1.02c-0.02,3.88,0.05,7.76,0,11.63c-0.01,0.94,0.27,1.1,1.13,1.09c3.76-0.04,7.52,0.01,11.27-0.03
	c0.79-0.01,1.02,0.21,1.01,1c-0.03,2.88-0.02,5.76,0.05,8.63c0.02,0.81-0.31,0.89-0.98,0.89c-3.88-0.03-7.76,0.01-11.63-0.03
	c-0.77-0.01-1.01,0.17-1,0.98c0.05,3.6,0.02,7.2,0.02,10.79C420.52,77.81,420.55,77.81,420.57,77.81z"/>
<path class="st1" d="M86.58,81.69c0,3.44,0.01,6.89,0.01,10.33c-0.14,0.06-0.24,0.03-0.33-0.09c-0.27-0.52-0.18-1.09-0.2-1.64
	c-0.04-1.2-0.1-1.28-1.23-1.05c-3.16,0.67-6.29,1.45-9.32,2.57c-0.44,0.16-0.87,0.43-1.37,0.21c-0.01-7.12-0.03-14.24-0.04-21.35
	c-0.01-4.76-0.07-9.52-0.34-14.27c-0.03-0.57,0.1-0.79,0.7-0.79c3.08,0.02,6.16,0.03,9.24-0.01c0.81-0.01,0.75,0.44,0.81,0.99
	c0.26,2.74,0.09,5.51,0.53,8.63c2.17-2.92,4.6-5.13,8-6.71c-0.48,1.24-0.45,2.28-0.5,3.32c-0.1,2.41,0.74,4.46,2.28,6.26
	c0.39,0.45,0.7,0.68-0.17,1.01c-5.12,1.94-7.62,5.8-8.03,11.15c-1.76,0.87-3.66,1.36-5.53,1.93c-1.02,0.32-2.05,0.65-3.11,0.82
	c-0.16-0.01-0.31,0.05-0.46,0.1c0.18-0.02,0.36-0.11,0.55-0.1c2.26-0.67,4.59-1.06,6.9-1.5C85.53,81.41,86.09,81.25,86.58,81.69z"/>
<path class="st2" d="M219.58,104.45c-3.52,0.01-7.03-0.01-10.55,0.06c-1.07,0.02-0.9-0.61-0.9-1.23c0-8.55,0-17.11,0-25.66
	c0-14.55,0-29.1,0-43.65c0-1.65,0-1.65,1.71-1.65c3.04,0,6.08,0.02,9.11-0.02c0.81-0.01,1.12,0.2,1.11,1.07
	c-0.03,12.91-0.03,25.82-0.04,38.73c-0.55,0.23-1.1,0.08-1.65-0.01c-2.79-0.47-5.57-1.04-8.36-1.52c-1.22-0.21-1.32-0.14-1.34,1.09
	c-0.02,2.2,0.01,4.39-0.01,6.59c0.05,2.67,0.05,5.34,0.01,8.01c0.04,2.69,0.05,5.39,0,8.08c0.02,1.05,0.04,2.1,0,3.15
	c0.03,0.52,0.02,1.04,0,1.56c0.06,1.19,0.04,2.38,0.02,3.57c-0.02,0.91,0.35,1.28,1.26,1.27c2.7-0.02,5.4-0.03,8.11,0.01
	C218.6,103.9,219.28,103.71,219.58,104.45z"/>
<path d="M336,80.05c0,7.75-0.02,15.51,0.03,23.26c0.01,0.99-0.29,1.17-1.2,1.15c-3.36-0.07-6.71-0.07-10.07-0.05
	c-0.78,0.01-0.95-0.23-1-1.01c-0.2-3.11,0.5-5.79,2.1-8.63c5.55-9.84,5.07-19.75-1-29.3c-0.77-1.2-1.19-2.34-1.11-3.76
	c0.09-1.79,0.05-3.6,0.02-5.39c-0.02-0.74,0.11-1.03,0.92-0.72c3.42,1.3,6.88,1.28,10.3,0.04c0.93-0.34,0.97,0.07,0.97,0.79
	c-0.01,7.87-0.01,15.75-0.01,23.62C335.97,80.05,335.98,80.05,336,80.05z"/>
<path class="st2" d="M285.1,79.37c0.82-6.64,4.23-11.46,10.45-13.93c6.86-2.72,13.07-1.2,18.17,4.02
	c5.85,5.99,6.12,15.44,0.79,21.86c-3.5,4.22-8.03,6.3-13.43,6.17c-3.62-0.09-6.98-1.28-9.76-3.77c0.05-0.04,0.1-0.08,0.15-0.12
	c1.6,0.08,3.1,0.7,4.69,0.86c4.26,0.44,8.31-0.25,12.1-2.21c3.99-2.06,6.62-6.96,6.31-11.57c-0.41-6.07-5.54-11.13-10.13-12.31
	c-4.59-1.18-8.73-0.44-12.12,3.12c-3.3,3.47-2.65,8.47,1.42,11c1.28,0.79,2.68,1.26,4.12,1.64c-2.05-0.46-3.66-2.3-4.08-4.75
	c-0.39-2.22,0.55-4.4,2.42-5.46c2.23-1.26,4.5-1.27,6.76-0.09c3.75,1.95,5.29,6.05,4.52,9.46c-0.45,2.01-1.89,3.36-3.59,4.3
	c-2.95,1.64-6.19,2.32-9.56,2.34c-0.48,0-0.96-0.03-1.36-0.37c-0.41-0.4-0.48-0.91-0.44-1.44c0.23-3.19-2.12-6.7-5.67-7.9
	C286.24,80.01,285.46,80.09,285.1,79.37z"/>
<path class="st3" d="M130.35,89.1c0.32,2.9,0.11,5.81,0.24,8.72c0.08,1.79,0.07,3.59,0.16,5.39c0.04,0.79-0.23,1.03-1.02,1.02
	c-2.76-0.02-5.51,0-8.27,0.07c-0.76,0.02-1.04-0.26-1.16-0.96c-0.22-1.38-0.5-2.75-0.76-4.12c-0.05-0.26,0.03-0.63-0.3-0.72
	c-0.33-0.09-0.47,0.25-0.62,0.46c-2.6,3.75-6.35,5.67-10.7,6.36c-7.19,1.14-14-1.93-17.16-7.45c-1.05-1.83-1.35-3.81-1.47-5.86
	c0.42-0.44,1-0.52,1.54-0.54c3.29-0.1,6.59-0.18,9.87,0.03c0.53,0.15,0.71,0.6,0.88,1.05c1.45,3.64,5.55,5.17,9.38,3.89
	c1.88-0.63,3.52-1.67,4.84-3.18c0.33-0.37,0.6-0.88,1.21-0.88c3.93,0.67,7.91,0.93,11.82,1.68c0.85,0.16,1.17-0.16,1.14-1
	c-0.03-0.87-0.02-1.75,0-2.63C129.99,89.96,129.92,89.46,130.35,89.1z"/>
<path class="st3" d="M340.47,41.98c-0.1,5.98-4.32,10.94-10.84,10.95c-6.53,0-10.73-4.8-10.88-10.89
	c-0.14-5.9,4.96-10.91,10.89-10.9C335.55,31.14,340.49,36.09,340.47,41.98z"/>
<path class="st4" d="M187.67,83.1c-3.24,1.23-6.48,2.48-9.73,3.67c-0.83,0.3-0.97,0.55-0.55,1.41c2.87,5.78,8.46,7.7,15.19,6.15
	c1.71-0.4,3.33-1.09,4.95-1.77c1.45-0.1,2.86,0.22,4.26,0.5c1.14,0.22,2.3,0.27,3.43,0.5c0.79,0.16,1.1-0.16,1.08-0.95
	c-0.03-1.36-0.03-2.71,0.01-4.07c0.01-0.47-0.16-1.07,0.52-1.3c0,3.19-0.02,6.38,0,9.57c0,0.68-0.33,1.01-0.91,1.21
	c-0.5-0.03-0.97,0.26-1.48,0.13c-1.72,0.01-3.44-0.21-5.14,0.16c-2.71,0.15-5.42,0.16-8.13,0c-1.27-0.36-2.56-0.12-3.84-0.19
	c-0.28,0.01-0.55-0.03-0.83-0.09c-0.97-0.31-1.97-0.08-2.95-0.19c-0.12-0.01-0.25-0.03-0.37-0.06c-0.63-0.23-1.28-0.18-1.94-0.1
	c-0.36,0.01-0.7-0.09-1.04-0.18c-0.51-0.2-1.03-0.09-1.55-0.04c-0.91-0.13-1.87,0.07-2.75-0.34c-0.5-0.32-1.04-0.18-1.57-0.13
	c-1.65-0.08-3.28-0.35-4.9-0.64c-3.73-4.83-5.67-10.32-6.21-16.36c-0.03-0.34,0.14-0.73-0.23-0.99c-0.11-0.27-0.02-0.5,0.15-0.71
	c0.1-0.08,0.22-0.14,0.35-0.17c2.64,0.19,5.21,0.8,7.79,1.3c3.45,0.67,6.9,1.33,10.36,1.96c1.61,0.3,3.21,0.66,4.82,0.96
	C186.93,82.42,187.52,82.44,187.67,83.1z"/>
<path class="st3" d="M97.14,77.35c3.75-2.55,7.97-3.73,12.4-4.3c2.46-0.32,4.94-0.35,7.41-0.21c1.03,0.06,1.36-0.38,1.33-1.33
	c-0.06-2.17-1.38-3.35-3.16-4.25c-2.3-1.16-4.7-1.73-7.44-1.36c0.93-2.21,1.18-4.35,0.44-6.51c-0.75-2.17-2.22-3.73-4.5-4.84
	c2.01-0.37,3.81-0.54,5.61-0.3c1.9,0.25,3.78,0.59,5.67,0.89c5.62,1.2,10.34,3.71,13.18,8.98c0.26,0.49,0.75,1.01,0.26,1.64
	c-2.52,0.9-5.12,1.47-7.11,2.03c1.53-0.27,3.7-0.29,5.85-0.52c0.85-0.09,1.77-0.28,2.47,0.49c0.79,2.2,1.48,4.41,0.82,6.78
	c-0.4,0.29-0.83,0.17-1.27,0.15c-2.15-0.12-4.31-0.19-6.46,0.07c-1.63,0.2-3.27,0.08-4.91,0.18c-6.43,0.39-12.8,1.22-19.11,2.52
	C98.13,77.57,97.6,77.79,97.14,77.35z"/>
<path class="st5" d="M187.67,83.1c-1.74-0.84-3.68-0.9-5.52-1.33c-2.92-0.67-5.9-1.07-8.85-1.63c-3.35-0.63-6.68-1.37-10.07-1.8
	c-0.61-0.68-0.39-1.5-0.32-2.27c0.18-2.02,0.57-4,1.15-5.95c1.04-2.18,1.86-4.49,3.57-6.3c0.1-0.07,0.2-0.13,0.32-0.18
	c1.96-0.14,3.88,0.27,5.81,0.44c1.19,0.1,2.37,0.26,3.56,0.38c0.59,0.06,1.37-0.05,1.33,0.94c-0.7,0.93-1.77,1.44-2.5,2.38
	c-2.35,3-2.6,6.41-2.21,9.99c0.1,0.9,0.54,0.98,1.32,0.69c4.08-1.5,8.14-3.04,12.22-4.54c0.41-0.15,0.79-0.39,1.26-0.28
	c1.8,0.51,3.64,0.84,5.47,1.17c3.05,0.56,6.06,1.32,9.13,1.78c0.28,0.04,0.55,0.1,0.73,0.35C198.6,78.99,193.14,81.04,187.67,83.1z"
	/>
<path class="st6" d="M178.56,65.33c-0.13-0.57-0.64-0.57-1.04-0.59c-2.96-0.2-5.91-0.53-8.85-0.95c-0.27-0.04-0.46,0.07-0.68,0.15
	c-0.2-0.22-0.16-0.47,0.01-0.65c0.69-0.75,1.21-1.68,2.15-2.18c0.4-0.01,0.63-0.31,0.91-0.52c4.91-3.78,10.34-5.9,16.65-5.33
	c4.33,0.39,7.9,2.34,10.97,5.3c2.55,2.46,4.5,5.36,5.89,8.63c-0.5,0.48-1.06,0.2-1.58,0.1c-4.04-0.74-8.08-1.42-12.13-2.05
	c-0.38-0.06-0.65-0.3-0.9-0.55c-3.05-2.98-6.53-3.14-10.29-1.61C179.32,65.22,179,65.56,178.56,65.33z"/>
<path class="st3" d="M89.35,88.4c0.25-3.24,1.88-5.79,4.02-8.08c2.96-0.69,6.01-0.74,9-1.15c3.37-0.46,6.78-0.36,10.15-0.38
	c5.61-0.03,11.24,0.03,16.84,0.72c0.31,0.04,0.64,0.04,0.9,0.27c0.02,2.96,0.04,5.92,0.06,8.88c-0.29,0.26-0.64,0.31-1,0.26
	c-3.3-0.5-6.62-0.73-9.93-1.09c-0.28-0.03-0.55-0.09-0.79-0.24c-0.45-0.45-0.35-1.03-0.37-1.58c-0.03-1.23,0.02-2.47-0.03-3.7
	c-0.03-0.87-0.39-1.46-1.36-1.46c-3.42,0.02-6.83,0.04-10.05,1.53c-1.88,0.86-3.39,2.06-4.4,3.85c-0.22,0.38-0.41,0.78-0.86,0.96
	c-3.2,0.3-6.41,0.48-9.61,0.82C91.05,88.1,90.23,88.48,89.35,88.4z"/>
<path class="st7" d="M285.1,79.37c1.3,0.45,2.67,0.69,3.83,1.51c2.58,1.81,3.99,4.23,3.96,7.43c0,0.36,0.03,0.71,0.04,1.07
	c0.01,0.13-0.03,0.24-0.12,0.33c-1.26,0.58-2.53,0.06-3.77-0.06c-3.17-0.32-6.14-1.35-8.92-2.92c-0.25-0.14-0.42-0.36-0.78-0.62
	c2.64,2.39,5.18,4.6,8.42,5.9c1.15,0.46,2.37,0.9,3.37,1.71c-0.41,0.55-0.75,1.17-1.44,1.43c-0.76,0.47-1.39-0.04-2.01-0.33
	c-2.8-1.29-5.39-2.95-7.89-4.74c-1.23-0.89-2.55-1.65-3.67-2.68c-0.29-0.27-0.65-0.47-0.78-0.88c0.78-3.8,4.24-7.48,9.4-7.08
	C284.86,79.44,284.98,79.39,285.1,79.37z"/>
<path class="st8" d="M130.26,79.78c-0.9,0.29-1.83,0.07-2.7-0.05c-3.53-0.47-7.09-0.22-10.61-0.5c-3.04-0.25-6.04,0.14-9.06,0.07
	c-4.58-0.1-9.09,0.66-13.62,1.12c-0.32,0.03-0.62,0.17-0.9-0.1c1.13-1.15,2.29-2.26,3.77-2.97c2.18-0.39,4.37-0.77,6.54-1.18
	c2.96-0.56,5.95-0.88,8.94-1.17c5.01-0.49,10.04-0.67,15.07-0.75c0.89-0.01,1.73,0.25,2.6,0.24c0.3,0.24,0.31,0.58,0.31,0.92
	c-0.01,0.21-0.07,0.4-0.21,0.56C130.35,77.23,130.3,78.5,130.26,79.78z"/>
<path class="st1" d="M86.4,92.02c0.06,0,0.13,0,0.19,0c0,3.83-0.02,7.67,0.02,11.5c0.01,0.85-0.16,1.19-1.11,1.17
	c-3.47-0.06-6.95-0.04-10.42-0.01c-0.71,0.01-0.98-0.17-0.96-0.93c0.05-3.11,0.04-6.23,0.05-9.34c0.19-0.4,0.56-0.53,0.95-0.64
	c3.42-0.97,6.94-1.4,10.45-1.84C85.86,91.89,86.13,91.94,86.4,92.02z"/>
<path class="st7" d="M128.47,65.59c-1.92-4.85-5.79-7.51-10.43-9.32c-1.03-0.4-2.09-0.75-3.13-1.13c6.79-0.01,13.58,0,20.37-0.03
	c0.61,0,0.92,0.14,1.1,0.78c0.76,2.68,1.59,5.35,2.39,8.02c-0.23,0.32-0.59,0.42-0.94,0.45c-3.04,0.25-5.99,1.07-9.02,1.41
	C128.68,65.75,128.56,65.69,128.47,65.59z"/>
<path class="st1" d="M305.28,52.76c0-3.49,2.98-6.51,6.43-6.52c3.54-0.01,6.54,2.99,6.54,6.54c0,3.48-2.98,6.51-6.44,6.56
	C308.33,59.39,305.27,56.31,305.28,52.76z"/>
<path class="st7" d="M100.7,55.32c3.41,0.01,6.26,2.85,6.28,6.27c0.02,3.43-2.96,6.41-6.35,6.35c-3.35-0.06-6.29-3.05-6.25-6.36
	C94.43,58.18,97.31,55.32,100.7,55.32z"/>
<path class="st9" d="M191.03,98.01c2.8,0,5.6,0,8.4,0c1.76-0.19,3.52-0.19,5.28,0c0.4-0.16,0.8-0.45,1.2,0
	c-1.25,0.88-2.56,1.67-4.01,2.19c-1.77,0.64-3.63,0.75-5.47,0.99c-0.59,0.06-1.19-0.03-1.77,0.17c-0.32,0.07-0.65,0.1-0.98,0.11
	c-0.52-0.02-1.05-0.01-1.55,0.16c-0.42,0.08-0.83,0.12-1.26,0.09c-4.15,0.13-8.29,0.37-12.45,0.2c-0.14-0.01-0.29-0.04-0.43-0.07
	c-1-0.29-2.1-0.01-3.07-0.46c-2.23-1.25-3.99-3.02-5.5-5.05c0.64-0.61,1.29-0.04,1.91,0.02c1.05,0.11,2.12,0.09,3.14,0.45
	c0.48-0.18,0.96-0.18,1.43,0c0.9,0.55,1.99-0.06,2.88,0.48c0.48-0.18,0.96-0.18,1.43,0c0.35-0.03,0.67,0.08,0.97,0.24
	c0.64-0.18,1.28-0.19,1.92,0c0.08,0,0.16,0,0.24,0c1.02,0.35,2.1-0.1,3.12,0.24c0.24,0,0.48,0,0.72,0
	C188.46,98.13,189.77,97.68,191.03,98.01z"/>
<path class="st10" d="M157.21,93.95c-0.57,1.71-1.19,3.4-1.96,5.03c-0.47,0.36-0.99,0.21-1.49,0.12c-4.67-0.84-9.32-1.74-13.99-2.56
	c-0.62-0.11-1.27-0.18-1.75-0.68c-0.93-2.03-1.65-4.14-2.39-6.24c0.35-0.37,0.8-0.33,1.23-0.25c3.07,0.53,6.14,1.06,9.19,1.68
	c0.4,0.08,0.77,0.21,1.08,0.49c0.2,0.48,0.4,0.95,0.6,1.43c0.54-0.15,0.24-0.74,0.59-0.95c0.37-0.32,0.8-0.29,1.24-0.21
	c2.27,0.38,4.5,0.9,6.74,1.41C156.69,93.3,157.21,93.33,157.21,93.95z"/>
<path class="st9" d="M190.79,67.06c1.64-0.26,3.17,0.37,4.75,0.6c3.02,0.44,6.02,1.01,9.03,1.53c1.01,1.91,1.6,3.97,2.13,6.05
	c0.14,0.56,0.04,0.8-0.49,0.96c-0.72,0.22-1.43,0.49-2.14,0.74c-3.46-0.23-6.77-1.27-10.16-1.85c-1.4-0.24-2.79-0.57-4.2-0.82
	c-0.41-0.07-0.77-0.17-1.08-0.45c0.55-0.94,1.62-0.92,2.47-1.27c2.3-0.93,2.3-0.87,1.05-3.05C191.68,68.7,190.87,68.08,190.79,67.06
	z"/>
<path class="st7" d="M147.13,91.53c-2.38-0.43-4.76-0.91-7.15-1.27c-1.45-0.22-2.87-0.66-4.35-0.64c-1.2-3.2-2.39-6.4-3.59-9.6
	c0.94-0.31,1.89-0.07,2.83,0.02c2.7,0.27,5.39,0.71,8.07,1.11c0.36,0.05,0.72,0.07,1.08,0.05
	C145.05,84.64,146.09,88.09,147.13,91.53z"/>
<path class="st7" d="M138.02,95.86c5.55,1.03,11.09,2.07,16.64,3.1c0.19,0.04,0.4,0.02,0.59,0.02c-0.64,1.68-1.29,3.35-1.9,5.04
	c-0.18,0.49-0.46,0.65-0.98,0.65c-3.44-0.02-6.88-0.03-10.32,0c-0.58,0-0.85-0.19-1.04-0.73
	C140.04,101.24,139.02,98.55,138.02,95.86z"/>
<path class="st2" d="M219.58,104.45c-0.38-0.33-0.84-0.19-1.26-0.19c-2.99-0.01-5.99-0.03-8.98,0.01c-0.78,0.01-1.06-0.23-1.03-1.02
	c0.06-1.43,0.03-2.87,0.04-4.31c1.67-0.99,3.59-0.98,5.41-1.38c0.64-0.14,1.29-0.17,1.65-0.32c-2.18,0.26-4.56,1.06-7.05,0.35
	c0-1.07-0.01-2.14-0.01-3.21c1.33-0.55,2.67-0.03,3.99,0.05c1.87,0.11,3.71,0.55,5.59,0.59c1.54,0.04,1.54,0.02,1.54-1.46
	c0-1.44-0.03-2.88,0.02-4.31c0.01-0.48-0.13-1.07,0.54-1.3c0,5.25,0.01,10.51,0,15.76C220.04,104.02,220.2,104.49,219.58,104.45z"/>
<path class="st2" d="M208.35,86.3c0-2.75,0-5.5,0.01-8.25c0.51-0.4,1.07-0.2,1.6-0.1c2.66,0.49,5.33,0.93,7.99,1.39
	c1.37,0.24,1.52,0.1,1.53-1.29c0.01-1.47-0.02-2.94,0.02-4.42c0.01-0.47-0.14-1.07,0.54-1.29c0,5.12-0.01,10.24-0.01,15.35
	c-0.71,0.22-1.44,0.16-2.14,0.08c-2.78-0.34-5.56-0.61-8.33-0.99C209.12,86.72,208.69,86.62,208.35,86.3z"/>
<path class="st7" d="M170.15,61.1c-0.51,1.1-1.75,1.65-2.16,2.83c0,0-0.12,0-0.12,0l-0.12,0c-0.82,0.26-1.66,0.16-2.49,0.11
	c-2.5-0.15-4.99-0.29-7.49-0.5c-0.32-0.03-0.63-0.08-0.86-0.35c0.63-2.14,1.26-4.28,1.88-6.42c0.1-0.36,0.19-0.68,0.67-0.68
	c4.09,0.01,8.19,0,12.39,0c-0.59,1.53-1.15,2.96-1.69,4.41C170.11,60.69,169.79,60.89,170.15,61.1z"/>
<path class="st11" d="M220.04,72.34c-0.43,1.72-0.14,3.47-0.18,5.2c-0.06,2.49-0.01,2.47-2.51,2.03c-2.99-0.53-5.99-1.01-8.99-1.52
	c-0.01-2.36,0-4.71-0.03-7.07c-0.01-0.81,0.1-1.11,1.08-0.92c3.34,0.68,6.71,1.21,10.07,1.81c0.19,0.03,0.37,0.14,0.55,0.22
	C220.03,72.18,220.03,72.26,220.04,72.34z"/>
<path class="st11" d="M208.35,86.3c2.95,0.35,5.91,0.65,8.85,1.07c0.94,0.14,1.93-0.18,2.82,0.32c0,0.08,0.01,0.16,0.01,0.25
	c-0.42,1.69-0.14,3.4-0.18,5.1c-0.05,2.37-0.02,2.48-2.4,2.31c-3.04-0.22-6.07-0.64-9.11-0.97
	C208.35,91.68,208.35,88.99,208.35,86.3z"/>
<path class="st7" d="M157.21,93.95c-1.24-0.69-2.65-0.74-3.99-1.04c-1.62-0.37-3.23-0.83-4.91-0.89c0.89-3.04,1.79-6.08,2.68-9.11
	c0.49-0.33,1.01-0.13,1.49-0.04c2.41,0.45,4.79,1.05,7.21,1.48c0.38,0.07,0.79,0.14,1.05,0.49
	C159.57,87.86,158.39,90.9,157.21,93.95z"/>
<path class="st7" d="M164.39,69.93c-0.51,2.51-1.23,4.98-1.19,7.58c0,0.28,0.02,0.55,0.03,0.83c0,0-0.05,0-0.05,0
	c-0.73,0.28-1.42-0.05-2.11-0.14c-2.49-0.33-4.94-0.87-7.43-1.21c-0.28-0.04-0.55-0.11-0.74-0.34c0.8-2.64,1.59-5.28,2.39-7.92
	c0.28-0.49,0.76-0.39,1.17-0.34c2.32,0.33,4.66,0.51,6.96,0.95C163.81,69.43,164.21,69.5,164.39,69.93z"/>
<path class="st12" d="M130.39,75.43c-0.03-0.31-0.06-0.63-0.08-0.94c0.12-2.31-0.3-4.53-0.98-6.72c-0.04-0.17,0.02-0.29,0.16-0.38
	c0.6-0.29,1.25-0.2,1.88-0.22c2.78-0.08,5.57,0.17,8.35-0.17c0.84,2.74,1.67,5.48,2.51,8.22c-0.44,0.42-0.96,0.27-1.47,0.22
	c-3.13-0.31-6.27-0.53-9.42-0.57C130.88,74.81,130.81,75.43,130.39,75.43z"/>
<path class="st10" d="M130.8,74.5c3.82,0.01,7.63,0.35,11.43,0.72c0.6,1.99,1.19,3.98,1.79,5.97c-0.05,0.31-0.17,0.52-0.55,0.45
	c-2.82-0.56-5.66-0.89-8.51-1.27c-0.97-0.13-1.99,0.09-2.92-0.36c-0.6-1.24-1.07-2.53-1.44-3.85
	C130.66,75.61,130.58,75.04,130.8,74.5z"/>
<path class="st8" d="M118.61,87.46c3.55,0.28,7.11,0.55,10.63,1.12c0.35,0.06,0.71,0.05,1.07,0.08c0.01,0.15,0.02,0.3,0.03,0.45
	c-0.01,1.56-0.04,3.12-0.03,4.67c0,0.67-0.12,0.86-0.9,0.73c-3.75-0.64-7.53-1.17-11.32-1.54c-0.43-0.04-0.86-0.15-1.22-0.42
	c-0.13-0.19-0.08-0.39,0.03-0.55c0.85-1.19,1.19-2.54,1.37-3.95C118.31,87.81,118.38,87.58,118.61,87.46z"/>
<path class="st10" d="M152.9,76.65c3.47,0.3,6.89,0.97,10.29,1.69c-0.06,0.21-0.13,0.43-0.19,0.64c-0.75,1.94-1.5,3.89-2.25,5.83
	c-2.59-0.31-5.1-1.04-7.67-1.49c-0.7-0.12-1.39-0.29-2.08-0.43C151.57,80.8,152.13,78.69,152.9,76.65z"/>
<path class="st13" d="M275.34,86.51c2.68,1.97,5.35,3.95,8.18,5.7c1.94,1.2,3.88,2.46,6.17,2.94c-0.65,1.21-1.92,1.37-3.04,1.72
	c-5.13,1.6-10.58-1.87-11.42-7.17C275.07,88.59,275.02,87.56,275.34,86.51z"/>
<path class="st10" d="M164.39,69.93c-3.01-0.64-6.04-1.06-9.11-1.2c0.39-1.89,0.95-3.73,1.64-5.53c3.35,0.17,6.7,0.33,10.04,0.51
	c0.27,0.01,0.53,0.15,0.79,0.23C166.34,65.77,165.47,67.91,164.39,69.93z"/>
<path class="st8" d="M89.35,88.4c1.18-0.97,2.66-0.72,4-0.86c2.72-0.28,5.44-0.62,8.19-0.56c-0.08,1.61,0.12,3.25-0.54,4.79
	c-3.9,0.09-7.81-0.21-11.71,0.25C88.89,90.8,89.26,89.6,89.35,88.4z"/>
<path class="st6" d="M191.03,101.38c0.4,0,0.8,0,1.2,0c0.44-0.3,1,0.07,1.44-0.24c0.32,0,0.64,0,0.96,0
	c0.53-0.31,1.15,0.08,1.68-0.24c1.87-0.23,3.73-0.46,5.6-0.69c-6.56,3.36-13.34,5.52-20.82,3.8c-1.91-0.44-3.74-1.12-5.4-2.19
	c0.75-0.63,1.58-0.27,2.39-0.2l0,0c1.66,0.28,3.33,0.06,5,0.12C185.73,101.84,188.38,101.58,191.03,101.38z"/>
<path class="st14" d="M86.4,92.02c-1.34,0.47-2.76,0.52-4.15,0.7c-2.74,0.35-5.44,0.9-8.08,1.69c-0.11-0.8-0.1-1.6-0.01-2.39
	c3.64-1.54,7.47-2.43,11.31-3.27c0.73-0.16,0.95,0.07,0.93,0.76C86.38,90.34,86.4,91.18,86.4,92.02z"/>
<path class="st13" d="M291.14,93.71c-4.85-1.65-9.13-4.15-12.42-8.16c4.26,2.87,9.01,3.99,14.07,4.08c0.66,0,0.4,0.5,0.34,0.75
	c-0.31,1.23-0.74,2.41-1.76,3.27c0,0-0.06,0.07-0.06,0.07C291.25,93.71,291.2,93.71,291.14,93.71z"/>
<path class="st0" d="M316.68,61.11c1.63,0,3.39,1.7,3.42,3.29c0.02,1.64-1.63,3.33-3.29,3.36c-1.72,0.03-3.33-1.53-3.36-3.24
	C313.43,62.85,315.08,61.11,316.68,61.11z"/>
<path class="st9" d="M206.83,87.23c-0.43,1.85-0.17,3.72-0.15,5.57c0.01,1.02-0.25,1.33-1.22,1.14c-2.63-0.51-5.33-0.65-7.92-1.4
	c3.18-1.48,6.22-3.2,8.93-5.45c0.07-0.06,0.21-0.06,0.31-0.06C206.79,87.03,206.81,87.16,206.83,87.23z"/>
<path class="st15" d="M139.71,67c-0.13,0.71-0.69,0.54-1.13,0.54c-3.07,0.01-6.14,0-9.21-0.01c-0.67-0.47-0.98-1.08-0.75-1.9
	c2.61-0.62,5.25-1.08,7.91-1.45c0.74-0.1,1.49-0.18,2.23-0.26C139.2,64.91,139.49,65.94,139.71,67z"/>
<path class="st16" d="M70.95,95.38c-2.67,0.97-5.3,2.01-7.82,3.34c2.16-2.49,4.93-4.05,7.8-5.48
	C71.07,93.95,71.04,94.66,70.95,95.38z"/>
<path class="st17" d="M86.58,81.69c-2.66,0.26-5.26,0.91-7.89,1.34c-0.31,0.05-0.62,0.08-0.93,0.11c-0.06-0.05-0.08-0.11-0.06-0.16
	c0.02-0.05,0.04-0.08,0.06-0.08c2.42-0.77,4.84-1.54,7.25-2.31c0.53-0.17,1.04-0.41,1.62-0.34C86.62,80.73,86.6,81.21,86.58,81.69z"
	/>
<path class="st18" d="M178.08,101.62c-0.79,0.09-1.62-0.21-2.39,0.2c-0.25-0.14-0.5-0.29-0.76-0.43
	C175.98,101.49,177.06,101.1,178.08,101.62z"/>
<path class="st19" d="M130.8,74.5c-0.08,0.56,0.19,1.15-0.2,1.67c-0.06-0.07-0.13-0.14-0.19-0.21c0-0.18-0.01-0.35-0.01-0.53
	C130.69,75.19,130.41,74.7,130.8,74.5z"/>
<path class="st20" d="M91.17,99.58c-0.33-0.29-0.55-0.51-0.63-0.91C91.01,98.77,91.18,99.03,91.17,99.58z"/>
<g>
	<path d="M284.68,54.66c-1.86-10.72-11.09-19.09-21.98-19.53c-11.63-0.47-23.27-0.14-34.9-0.11c-0.92,0-1.17,0.28-1.17,1.22
		c0.04,11.2,0.02,22.39,0.02,33.59c0,11.16,0.02,22.31-0.03,33.47c0,0.98,0.26,1.19,1.19,1.17c3.64-0.07,7.28-0.08,10.91-0.04
		c0.92,0.01,1.12-0.26,1.11-1.14c-0.01-5.88,0.04-11.75,0.06-17.63c0.01-1.55,0-1.55,1.62-1.57c6.76-0.08,13.52,0.13,20.27-0.18
		c3.76-0.17,7.31-1.17,10.69-2.82c0.62-0.3,0.85-0.65,0.89-1.34c0.46-7.82,3.45-14.52,9.47-19.56
		C284.84,58.49,285.07,56.95,284.68,54.66z M263.51,71.44c-0.97,0.29-1.96,0.41-2.96,0.41c-6.6,0.03-13.2,0.03-19.8,0.07
		c-0.68,0-0.87-0.18-0.86-0.86c0.03-3.8,0.02-7.6,0.02-11.4c0-3.72,0.02-7.44-0.02-11.16c-0.01-0.73,0.08-1.04,0.95-1.03
		c6.52,0.06,13.04,0,19.56,0.1c6.1,0.1,10.77,4.34,11.52,10.27C272.73,64.29,269.41,69.66,263.51,71.44z"/>
</g>
<path class="st21" d="M77.76,82.9c0,0.08,0,0.16,0,0.24c-0.16,0.2-0.43,0.37-0.53,0.07C77.15,82.97,77.52,82.92,77.76,82.9z"/>
<path class="st22" d="M208.36,97.59c2.53-0.15,5.06-0.3,7.59-0.45c-2.49,0.78-5.03,1.36-7.6,1.8
	C208.35,98.49,208.36,98.04,208.36,97.59z"/>
<path class="st11" d="M291.37,93.64c0.48-1.21,1.37-2.25,1.53-3.61c0.02-0.16,0.05-0.3-0.1-0.41c0.04-0.08,0.09-0.17,0.13-0.25
	c1.62,0.65,3.26,0.15,4.84-0.05c2.12-0.26,4.27-0.85,6.05-2.04c3.82-2.57,4.11-4.52,3.07-8.47c-0.83-3.19-4.28-5.57-7.59-5.5
	c-2.62,0.05-4.67,1.64-5.25,4.08c-0.51,2.13,0.85,5.06,2.85,6.13c0.51,0.27,1.04,0.51,1.68,0.82c-3.74-0.03-7.39-2.53-8.37-5.76
	c-0.79-2.6-0.11-4.96,1.6-7.03c3.66-4.43,10.63-5.09,15.38-2.36c3.37,1.94,5.87,4.64,7.05,8.26c1.42,4.38,0.69,8.53-2.34,12.2
	c-2.77,3.35-6.54,4.43-10.59,5.05C297.89,95.19,294.6,94.77,291.37,93.64z"/>
<path class="st23" d="M204.71,98.01c-1.76,0-3.52,0-5.28,0C201.2,97.62,202.96,97.62,204.71,98.01z"/>
<path class="st24" d="M191.03,98.01c-1.28-0.12-2.59,0.27-3.84-0.24C188.47,97.9,189.78,97.51,191.03,98.01z"/>
<path class="st25" d="M186.47,97.77c-1.04-0.13-2.11,0.29-3.12-0.24C184.39,97.66,185.47,97.25,186.47,97.77z"/>
<path class="st26" d="M183.12,97.54c-0.64,0-1.28,0-1.92,0C181.84,97.17,182.48,97.16,183.12,97.54z"/>
<path class="st27" d="M175.91,96.81c-0.48,0-0.96,0-1.43,0C174.96,96.45,175.44,96.45,175.91,96.81z"/>
<path class="st28" d="M180.23,97.29c-0.48,0-0.96,0-1.43,0C179.28,96.93,179.75,96.93,180.23,97.29z"/>
<path class="st29" d="M128.63,65.62c0.25,0.63,0.5,1.27,0.75,1.9c-0.02,0.08-0.03,0.16-0.05,0.23c-0.59-0.35-1.26-0.27-1.87-0.2
	c-2.25,0.23-4.5,0.44-6.77,0.48c-0.23,0-0.45,0.09-0.71,0.04c2.76-1.05,5.58-1.91,8.49-2.49C128.52,65.59,128.57,65.6,128.63,65.62z
	"/>
<path class="st18" d="M191.03,101.38c-1.23,0.52-2.57,0.32-3.84,0.41c-2.81,0.2-5.65,0.06-8.47,0.06c-0.24,0-0.48-0.02-0.64-0.24
	C182.4,101.63,186.72,101.64,191.03,101.38z"/>
<path class="st30" d="M196.31,100.9c-0.51,0.46-1.12,0.15-1.68,0.24C195.14,100.68,195.76,100.99,196.31,100.9z"/>
<path class="st31" d="M193.68,101.14c-0.42,0.43-0.96,0.16-1.44,0.24C192.66,100.94,193.19,101.21,193.68,101.14z"/>
</svg>
